<?xml version="1.0" encoding="utf-8"?><svg xmlns="http://www.w3.org/2000/svg" version="1.0" x="0px" y="0px" viewBox="0 0 600 600" enable-background="new 0 0 598.486 671.089"><defs><mask id="hashCircle"><circle cx="300" cy="300" r="190" fill="white"/></mask></defs><g transform="translate(300,300) scale(.95) translate(-300,-300)"><circle cx="300" cy="300" r="300" fill="#000" /><circle cx="300" cy="300" r="285" fill="#fff" /><circle cx="300" cy="300" r="270" fill="#000" /><g style="fill:none;stroke:#fff;stroke-width:8" id="hashpattern" mask="url(#hashCircle)"><line y2="292.754" x2="556.415" y1="556.03" x1="293.134"/><line y2="270.851" x2="534.643" y1="535.273" x1="270.217"/><line y2="248.948" x2="512.87" y1="514.513" x1="247.3"/><line y2="227.044" x2="491.098" y1="493.754" x1="224.384"/><line y2="205.141" x2="469.324" y1="473" x1="201.467"/><line y2="173.238" x2="457.552" y1="452.236" x1="178.55"/><line y2="151.334" x2="435.778" y1="431.477" x1="155.633"/><line y2="139.431" x2="404" y1="410.718" x1="132.716"/><line y2="117.528" x2="382.233" y1="389.958" x1="109.8"/><line y2="95.625" x2="360.46" y1="369.2" x1="86.883"/><line y2="73.721" x2="338.688" y1="348.441" x1="63.966"/><line y2="51.818" x2="316.915" y1="327.681" x1="41.049"/><line y2="555.488" x2="307.622" y1="287.579" x1="39.726" /><line y2="534.014" x2="329.825" y1="265.586" x1="61.409" /><line y2="512.542" x2="352.029" y1="243.593" x1="83.092" /><line y2="491.068" x2="374.231" y1="221.6" x1="104.774"/><line y2="469.595" x2="396.436" y1="199.607" x1="126.457"/><line y2="458.122" x2="428.639" y1="177.614" x1="148.14" /><line y2="436.648" x2="450.842" y1="155.621" x1="169.822"/><line y2="405.175" x2="463.046" y1="133.628" x1="191.505"/><line y2="383.7" x2="485.248" y1="111.635" x1="213.188"/><line y2="362.229" x2="507.452" y1="89.642" x1="234.871"/><line y2="340.755" x2="529.655" y1="67.649" x1="256.553"/><line y2="319.283" x2="551.858" y1="45.657" x1="278.236"/></g><path stroke="#000" stroke-width="6" fill="#fff" d="M 377.768,426.033 C 365.328,426.033 354.411,418.155 350.601,406.429 L 336.745,364.211 L 267.43,364.211 L 254.556,406.044 C 250.67,417.998 239.67,426 227.166,426 C 224.164,426 221.182,425.525 218.303,424.591 C 203.357,420.104 194.872,404.017 199.451,388.751 L 257.957,203.428 C 261.756,191.639 272.94,183.416 285.157,183.416 L 316.267,183.416 C 328.553,183.416 339.736,191.499 343.461,203.073 L 404.99,388.327 C 409.91,403.473 401.763,419.732 386.839,424.59 C 383.888,425.548 380.837,426.033 377.768,426.033 L 377.768,426.033 z" /><g id="OAUTH" fill="#fff"><path d="M 148.001,124.354 L 147.928,124.255 C 140.632,114.256 142.773,100.268 153.518,92.426 C 164.263,84.585 178.066,86.786 185.362,96.784 L 185.435,96.883 C 192.731,106.882 190.59,120.871 179.845,128.712 C 169.1,136.553 155.297,134.353 148.001,124.354 z M 175.658,104.171 L 175.585,104.072 C 171.919,99.048 165.093,97.32 159.771,101.204 C 154.498,105.052 154.088,111.907 157.754,116.932 L 157.827,117.031 C 161.494,122.055 168.319,123.783 173.592,119.935 C 178.915,116.051 179.325,109.196 175.658,104.171 z" /><path d="M 218.344,58.817 L 229.309,55.299 L 260.048,91.033 L 247.851,94.946 L 242.509,88.576 L 226.676,93.656 L 226.096,101.927 L 214.134,105.765 L 218.344,58.817 z M 236.384,80.775 L 228.066,70.573 L 227.177,83.729 L 236.384,80.775 z" /><path d="M 279.795,69.567 L 279.891,45.364 L 292.023,45.412 L 291.928,69.369 C 291.903,75.589 295.032,78.557 299.836,78.577 C 304.64,78.596 307.792,75.776 307.815,69.741 L 307.912,45.477 L 320.044,45.525 L 319.949,69.42 C 319.894,83.338 311.926,89.404 299.67,89.355 C 287.415,89.305 279.742,83.054 279.795,69.567 z" /><path d="M 363.859,65.338 L 351.491,61.563 L 354.547,51.55 L 390.71,62.587 L 387.654,72.6 L 375.286,68.826 L 365.759,100.042 L 354.333,96.555 L 363.859,65.338 z" /><path d="M 423.012,76.559 L 432.958,83.178 L 424.02,96.61 L 436.786,105.106 L 445.725,91.673 L 455.671,98.292 L 431.788,134.181 L 421.841,127.562 L 430.917,113.924 L 418.15,105.428 L 409.075,119.066 L 399.129,112.447 L 423.012,76.559 z"/><path d="M 458.146,468.883 L 458.222,468.98 C 465.896,478.693 464.29,492.755 453.852,501.001 C 443.414,509.247 429.536,507.575 421.862,497.862 L 421.786,497.765 C 414.112,488.051 415.719,473.99 426.156,465.744 C 436.594,457.499 450.472,459.17 458.146,468.883 z M 431.277,490.11 L 431.353,490.207 C 435.209,495.088 442.096,496.554 447.267,492.469 C 452.389,488.422 452.538,481.556 448.681,476.675 L 448.605,476.578 C 444.75,471.697 437.862,470.231 432.74,474.278 C 427.569,478.363 427.421,485.229 431.277,490.11 z"/><path d="M 390.707,537.182 L 379.907,541.179 L 347.625,506.833 L 359.638,502.386 L 365.256,508.516 L 380.85,502.744 L 381.065,494.456 L 392.847,490.095 L 390.707,537.182 z M 371.718,516.04 L 380.477,525.865 L 380.786,512.683 L 371.718,516.04 z"/><path d="M 328.888,528.985 L 329.955,553.164 L 317.835,553.699 L 316.778,529.766 C 316.504,523.552 313.236,520.738 308.437,520.95 C 303.638,521.162 300.625,524.131 300.891,530.16 L 301.961,554.4 L 289.841,554.935 L 288.787,531.064 C 288.173,517.16 295.841,510.718 308.084,510.178 C 320.328,509.637 328.293,515.511 328.888,528.985 z"/><path d="M 244.671,536.891 L 257.158,540.262 L 254.429,550.37 L 217.918,540.515 L 220.647,530.406 L 233.134,533.777 L 241.641,502.261 L 253.177,505.375 L 244.671,536.891 z"/><path d="M 185.65,528.108 L 175.401,521.966 L 183.696,508.125 L 170.543,500.241 L 162.248,514.082 L 152,507.94 L 174.164,470.961 L 184.412,477.104 L 175.99,491.156 L 189.144,499.04 L 197.566,484.988 L 207.814,491.131 L 185.65,528.108 z"/></g></g></svg>
